# xmcd
#
# Track frame offsets: 
#        150
#        21715
#        38247
#        61675
#        83872
#        112117
#        132632
#        147017
#        168472
#        188940
#        213250
#        236817
#
# Disc length: 3408 seconds
#
# Revision: 0
# Processed by: cddbd v1.4PL0 Copyright (c) Steve Scherf et al.
# Submitted via: ExactAudioCopy v0.90b4
#
DISCID=b20d4e0c
DTITLE=Byther Smith - Smitty's Blues
DYEAR=2001
DGENRE=Blues
TTITLE0=Ought to be  ashamed
TTITLE1=Little voice
TTITLE2=So many roads, so many trains
TTITLE3=She's a good 'un
TTITLE4=Five long years
TTITLE5=Your daughter don't want me no more
TTITLE6=Same thing on my mind
TTITLE7=You don't love me no more
TTITLE8=Tramp
TTITLE9=Sell my monkey
TTITLE10=Don't hurt me no more
TTITLE11=I live here
EXTD=
EXTT0=
EXTT1=
EXTT2=
EXTT3=
EXTT4=
EXTT5=
EXTT6=
EXTT7=
EXTT8=
EXTT9=
EXTT10=
EXTT11=
PLAYORDER=
